<?xml version="1.0" encoding="UTF-8" standalone="no"?>
<!-- Generator: Adobe Illustrator 14.0.0, SVG Export Plug-In . SVG Version: 6.00 Build 43363)  -->

<svg
   version="1.0"
   id="Layer_1"
   x="0px"
   y="0px"
   width="158.504px"
   height="201.238px"
   viewBox="0 0 158.504 201.238"
   enable-background="new 0 0 158.504 201.238"
   xml:space="preserve"
   sodipodi:docname="primer-normals.svg"
   inkscape:version="1.1 (c68e22c387, 2021-05-23)"
   xmlns:inkscape="http://www.inkscape.org/namespaces/inkscape"
   xmlns:sodipodi="http://sodipodi.sourceforge.net/DTD/sodipodi-0.dtd"
   xmlns:xlink="http://www.w3.org/1999/xlink"
   xmlns="http://www.w3.org/2000/svg"
   xmlns:svg="http://www.w3.org/2000/svg"><defs
   id="defs228" /><sodipodi:namedview
   id="namedview226"
   pagecolor="#ffffff"
   bordercolor="#666666"
   borderopacity="1.0"
   inkscape:pageshadow="2"
   inkscape:pageopacity="0.0"
   inkscape:pagecheckerboard="0"
   showgrid="false"
   inkscape:zoom="8"
   inkscape:cx="147.25"
   inkscape:cy="124.6875"
   inkscape:window-width="1920"
   inkscape:window-height="1011"
   inkscape:window-x="-9"
   inkscape:window-y="-9"
   inkscape:window-maximized="1"
   inkscape:current-layer="g108" />
<g
   id="g108">
	<defs
   id="defs3">
		<rect
   id="SVGID_1_"
   x="0.293"
   width="158.211"
   height="82.764" />
	</defs>
	<clipPath
   id="SVGID_2_">
		<use
   xlink:href="#SVGID_1_"
   overflow="visible"
   id="use5" />
	</clipPath>
	<path
   clip-path="url(#SVGID_2_)"
   d="M128.305,48.449c-0.624,0.929-1.252,1.858-1.906,2.778c-1.253,1.754-2.599,3.473-4.017,5.142   c-1.014,1.194-2.069,2.369-3.177,3.509c-0.916,0.938-1.849,1.871-2.8,2.755c-4.815,4.492-10.053,8.185-15.729,10.962   c-1.557,0.763-3.153,1.468-4.788,2.083c-4.761,1.79-9.791,3.019-15.273,3.378c-0.606,0.041-1.216,0.072-1.84,0.09   c-3.093,0.099-6.112-0.125-8.952-0.606c-1.692-0.282-3.343-0.659-4.941-1.135c-4.59-1.364-8.826-3.428-12.622-6.381   c-1.494-1.162-2.939-2.477-4.259-3.913c-0.785-0.848-1.517-1.732-2.188-2.638c-1.002-1.346-1.877-2.742-2.648-4.205   c-1.557-2.957-2.625-6.17-3.069-9.688c-0.144-1.126-0.202-2.279-0.198-3.482c0-0.296,0.01-0.583,0.023-0.879   c0.004-0.153,0.004-0.314,0.027-0.467c0.013-0.112,0.013-0.229,0.021-0.341c0.023-0.283,0.045-0.561,0.077-0.839   c0.099-0.862,0.224-1.696,0.403-2.513c0.467-2.158,1.197-4.204,2.23-6.084c0.502-0.92,1.068-1.822,1.719-2.666   c0.332-0.431,0.678-0.857,1.045-1.265c1.019-1.127,2.141-2.132,3.344-2.953c0.602-0.413,1.22-0.808,1.866-1.135   c0.664-0.341,1.338-0.664,2.047-0.92c1.337-0.48,2.723-0.826,4.227-0.974c0.638-0.063,1.306-0.072,1.965-0.067   c0.494,0.004,0.987,0.067,1.464,0.103c0.215,0.018,0.435,0.058,0.649,0.094c0.392,0.063,0.781,0.139,1.167,0.225   c2.585,0.565,4.855,1.795,6.861,3.518c0.332,0.287,0.646,0.601,0.956,0.915c0.403,0.408,0.767,0.844,1.117,1.283   c0.941,1.194,1.678,2.482,2.288,3.842c0.408,0.91,0.731,1.862,0.991,2.844c0.494,1.831,0.709,3.815,0.651,5.901   c-0.027,0.906-0.13,1.795-0.274,2.648c-0.564,3.284-1.826,6.273-3.692,8.907c-0.534,0.763-1.117,1.498-1.764,2.203   c-3.279,3.563-7.265,5.806-11.829,6.856c-1.041,0.243-2.126,0.391-3.238,0.472c-0.437,0.031-0.884,0.049-1.333,0.049   c-3.074,0.018-5.865-0.574-8.405-1.638c-1.548-0.642-3.028-1.436-4.394-2.45c-0.672-0.502-1.322-1.036-1.961-1.62   c-1.063-0.974-1.974-2.073-2.754-3.199c-1.603-2.32-2.67-4.963-3.082-7.871c-0.051-0.332-0.091-0.673-0.123-1.018   c-0.035-0.409-0.058-0.826-0.062-1.248c-0.032-2.131,0.31-4.092,0.974-5.883c0.695-1.875,1.74-3.558,3.258-5.016   c0.914-0.88,1.942-1.602,3.056-2.109c1.216-0.557,2.526-0.92,3.998-0.979c0.592-0.022,1.194,0.009,1.741,0.09   c1.148,0.171,2.221,0.53,3.203,1.05c0.266,0.139,0.521,0.287,0.768,0.453c0.162,0.104,0.337,0.211,0.489,0.332   c0.18,0.144,0.368,0.283,0.552,0.436c0.436,0.363,0.871,0.785,1.239,1.22c0.336,0.4,0.637,0.799,0.915,1.221   c0.256,0.395,0.479,0.803,0.687,1.22c0.938,1.885,1.377,4.106,1.279,6.484c-0.019,0.481-0.063,0.961-0.131,1.423   c-0.059,0.39-0.125,0.776-0.206,1.153c-0.574,2.647-1.817,4.994-3.549,7.072c-0.755,0.906-1.67,1.772-2.59,2.472   c-1.867,1.423-3.908,2.446-6.188,3.02c-1.145,0.292-2.334,0.494-3.596,0.539c-0.744,0.027-1.506,0.013-2.229-0.05   c-0.722-0.058-1.418-0.179-2.101-0.318c-0.668-0.139-1.323-0.332-1.946-0.557c-2.231-0.794-4.235-2.032-5.985-3.787   c-0.342-0.336-0.656-0.691-0.957-1.045c-0.453-0.539-0.865-1.113-1.229-1.706c-0.668-1.09-1.166-2.234-1.558-3.468   c-0.291-0.929-0.475-1.925-0.543-2.962c-0.084-1.346,0.045-2.674,0.377-3.859c0.328-1.18,0.826-2.288,1.53-3.271   c0.494-0.686,1.109-1.364,1.796-1.889c0.713-0.539,1.467-0.974,2.301-1.261c0.66-0.233,1.364-0.377,2.133-0.408   c1-0.036,1.92,0.139,2.75,0.457c0.207,0.081,0.404,0.166,0.602,0.265c0.104,0.049,0.206,0.099,0.305,0.153   c0.037,0.022,0.086,0.058,0.125,0.071c0.06,0.018,0.123,0.072,0.176,0.104c0.135,0.076,0.261,0.161,0.391,0.247   c0.372,0.255,0.719,0.538,1.055,0.866c1.055,1.018,1.719,2.203,2.168,3.527c0.362,1.085,0.528,2.31,0.498,3.585   c-0.015,0.749-0.113,1.476-0.257,2.158c-0.112,0.552-0.269,1.077-0.458,1.589c-0.695,1.911-1.799,3.634-3.347,5.111   c-0.287,0.269-0.584,0.52-0.88,0.762c-0.691,0.557-1.428,1.032-2.198,1.432c-1.522,0.79-3.164,1.315-4.972,1.552   c-1.18,0.153-2.519,0.153-3.693-0.013c-1.979-0.278-3.77-0.956-5.385-1.956c-1.611-0.992-3.141-2.455-4.137-4.079   c-0.875-1.423-1.504-3.016-1.666-4.802c-0.018-0.237-0.035-0.48-0.045-0.731c-0.026-1.212,0.14-2.333,0.472-3.379   c0.44-1.369,1.163-2.638,2.315-3.612c0.543-0.453,1.135-0.808,1.781-1.059c0.494-0.189,1.01-0.328,1.557-0.404   c0.306-0.045,0.625-0.063,0.953-0.058c1.865,0.018,3.422,0.843,4.603,2.225c0.763,0.889,1.252,1.898,1.584,3.011   c0.149,0.498,0.256,1.041,0.292,1.584c0.027,0.489,0.049,1.019,0.005,1.512c-0.157,1.867-0.75,3.469-1.715,4.936   c-0.453,0.688-0.991,1.338-1.615,1.939c-0.435,0.417-0.884,0.799-1.351,1.144c-1.543,1.144-3.293,1.93-5.205,2.32   c-0.588,0.121-1.189,0.188-1.822,0.229c-1.107,0.076-2.248-0.032-3.253-0.238c-2.136-0.435-4.038-1.324-5.69-2.719   c-1.009-0.853-1.861-1.898-2.453-2.998c-0.302-0.556-0.566-1.131-0.76-1.741c-0.049-0.143,0.027-0.3,0.172-0.35   c0.144-0.049,0.301,0.027,0.35,0.171c0.525,1.584,1.427,2.979,2.705,4.177c0.593,0.557,1.244,1.019,1.912,1.427   c1.022,0.624,2.131,1.041,3.312,1.351c1.647,0.435,3.688,0.485,5.403,0.13c-0.019,0.005,0.021-0.004,0.031-0.009   c0.021-0.004,0.045-0.009,0.071-0.013c0.045-0.009,0.095-0.018,0.144-0.032c0.216-0.049,0.427-0.103,0.638-0.161   c0.637-0.184,1.243-0.413,1.835-0.678c0.381-0.17,0.749-0.372,1.113-0.579c1.35-0.772,2.67-1.907,3.621-3.204   c0.789-1.072,1.395-2.252,1.709-3.562c0.144-0.606,0.246-1.243,0.265-1.912c0.005-0.233,0.005-0.48-0.004-0.718   c0-0.058-0.009-0.135-0.015-0.22c-0.066-0.96-0.295-1.858-0.664-2.665c-0.084-0.184-0.166-0.368-0.265-0.539   c-0.116-0.202-0.228-0.404-0.362-0.597c-0.287-0.399-0.606-0.789-0.983-1.139c-1.036-0.961-2.343-1.504-3.872-1.445   c-0.323,0.009-0.628,0.054-0.934,0.108c0.009,0,0.022-0.005,0,0c-0.014,0.004-0.027,0.004-0.041,0.008   c-0.063,0.014-0.125,0.023-0.184,0.041c-0.121,0.031-0.232,0.058-0.354,0.09c-0.473,0.134-0.911,0.336-1.329,0.583   c-0.197,0.117-0.396,0.251-0.583,0.399c-0.938,0.745-1.602,1.719-2.033,2.76c-0.516,1.238-0.74,2.647-0.668,4.155   c0.018,0.355,0.063,0.7,0.115,1.032c0.023,0.121,0.041,0.238,0.068,0.355c0.01,0.04,0.019,0.085,0.027,0.13   c0,0.004,0,0.013,0.004,0.018c0,0.004,0,0.013,0.005,0.018c0,0.004,0,0.013,0.005,0.018v0.018c0.008,0.036,0.004,0.018,0.004,0.009   c0.363,1.534,1.027,2.916,1.979,4.159c0.602,0.786,1.352,1.553,2.141,2.154c1.629,1.239,3.42,2.1,5.461,2.517   c0.844,0.171,1.732,0.27,2.67,0.252c-0.022,0.013,0.037,0.004,0.059,0h0.135c0.211-0.005,0.417-0.018,0.628-0.032   c0.646-0.045,1.271-0.134,1.88-0.255c1.858-0.382,3.549-1.122,5.075-2.181c1.508-1.05,2.845-2.536,3.72-4.097   c0.233-0.417,0.436-0.835,0.629-1.274c0.094-0.22,0.18-0.449,0.265-0.683c0.026-0.076,0.058-0.157,0.085-0.242   c0.009-0.027,0.018-0.058,0.027-0.09c0.004-0.004,0.004-0.009,0.004-0.013c0.01-0.022,0.004-0.009,0.004,0   c0.145-0.494,0.287-0.983,0.369-1.508c0.071-0.462,0.121-0.929,0.147-1.422c0.022-0.467,0.005-0.942-0.04-1.391   c-0.018-0.207-0.036-0.409-0.072-0.602c-0.039-0.219-0.08-0.439-0.125-0.65c-0.162-0.768-0.431-1.512-0.799-2.172   c-0.449-0.808-1.041-1.602-1.813-2.212c-0.193-0.153-0.387-0.296-0.594-0.435c-0.111-0.072-0.224-0.14-0.336-0.207   c-0.022-0.013-0.039-0.027-0.063-0.036c-0.004-0.004-0.004-0.004-0.01-0.004c-0.004-0.005-0.004-0.005-0.008-0.009   c-0.004,0-0.004,0-0.01-0.005c-0.031-0.018-0.013-0.004-0.004-0.004c-0.252-0.126-0.498-0.256-0.759-0.364   c-0.453-0.184-0.933-0.314-1.44-0.395c-0.727-0.112-1.557-0.062-2.238,0.095c-1.109,0.251-2.092,0.776-2.963,1.503   c-0.403,0.341-0.803,0.745-1.121,1.162c-0.188,0.247-0.368,0.503-0.534,0.758c0.005-0.004,0.014-0.018,0.009-0.013   c-0.027,0.045-0.059,0.099-0.089,0.148c-0.05,0.085-0.099,0.171-0.147,0.256c-0.203,0.363-0.383,0.74-0.535,1.131   c-0.436,1.095-0.695,2.302-0.709,3.598c-0.014,1.315,0.18,2.522,0.521,3.671c0.521,1.763,1.392,3.352,2.571,4.792   c0,0-0.004-0.004-0.004-0.009c0.367,0.467,0.799,0.911,1.238,1.324c0.838,0.794,1.736,1.454,2.688,2.024   c0.799,0.475,1.656,0.866,2.54,1.184c1.659,0.597,3.454,0.902,5.416,0.884c0.561-0.004,1.112-0.049,1.647-0.107   c1.026-0.117,2.018-0.332,2.961-0.624c-0.01,0,0.09-0.031,0.121-0.04c0.086-0.027,0.176-0.054,0.264-0.086   c0.176-0.058,0.351-0.121,0.525-0.188c0.732-0.265,1.432-0.606,2.114-0.987c1.413-0.781,2.715-1.813,3.899-3.061   c1.019-1.077,1.84-2.284,2.494-3.553c0.157-0.301,0.292-0.615,0.436-0.929c0.314-0.705,0.552-1.454,0.745-2.222   c0.05-0.192,0.095-0.394,0.135-0.596c0.013-0.059,0.022-0.117,0.036-0.175c0-0.014,0.004-0.027,0.009-0.041v-0.013   c0.004-0.023,0.004-0.014,0.004-0.009c-0.004,0.004-0.004,0.009-0.004,0.013c0.081-0.502,0.152-0.996,0.197-1.521   c0.067-0.821,0.05-1.709-0.049-2.508c-0.14-1.122-0.396-2.181-0.809-3.168c-0.202-0.476-0.426-0.956-0.694-1.396   c-0.198-0.318-0.4-0.641-0.643-0.942c-0.22-0.278-0.449-0.543-0.696-0.817c-0.251-0.269-0.538-0.525-0.821-0.749   c-0.103-0.085-0.205-0.171-0.309-0.247c-0.041-0.031-0.08-0.063-0.121-0.094c-0.005-0.005-0.014-0.009-0.018-0.014   c-0.032-0.022,0,0,0.009,0.005c-0.382-0.256-0.769-0.503-1.172-0.714c-0.704-0.372-1.476-0.623-2.288-0.789   c-0.395-0.081-0.803-0.121-1.225-0.139c-2.239-0.09-4.094,0.655-5.73,1.808c0.053-0.027-0.041,0.036-0.059,0.045   c-0.063,0.049-0.131,0.099-0.193,0.148c-0.264,0.206-0.52,0.431-0.767,0.66c-0.494,0.457-0.942,0.982-1.328,1.503   c-1.077,1.445-1.759,3.096-2.159,4.877c-0.21,0.947-0.318,1.943-0.336,2.98c-0.014,0.498,0.009,1,0.045,1.476   c0.014,0.171,0.027,0.341,0.045,0.507c0.01,0.059,0.014,0.117,0.021,0.175c0.01,0.054,0.015,0.108,0.019,0.157   c0,0.009,0.005,0.014,0.005,0.023c0.004,0.04,0,0.018,0,0.004c0.372,2.787,1.355,5.3,2.889,7.503   c0.705,1.014,1.526,1.992,2.469,2.876c0.548,0.507,1.104,0.987,1.688,1.414c1.911,1.395,3.975,2.441,6.25,3.109   c1.809,0.53,3.729,0.826,5.812,0.817c0.373-0.004,0.741-0.018,1.104-0.04c-0.009,0-0.04,0.004,0.009,0   c0.027-0.005,0.059-0.005,0.091-0.009c0.13-0.009,0.269-0.018,0.398-0.032c0.251-0.021,0.498-0.049,0.745-0.076   c1.072-0.13,2.118-0.35,3.114-0.637c2.06-0.593,3.985-1.477,5.757-2.648c0.844-0.552,1.661-1.171,2.428-1.862   c2.419-2.172,4.258-4.747,5.407-7.601c0.305-0.75,0.562-1.513,0.785-2.302c0.112-0.386,0.202-0.777,0.287-1.176   c0.026-0.139,0.059-0.278,0.086-0.417c0.009-0.054,0.018-0.103,0.026-0.157c0-0.005,0.005-0.014,0.005-0.023   c0.009-0.04,0-0.018,0-0.004c0.161-1.001,0.277-2.01,0.292-3.092c0.013-1.185-0.091-2.324-0.283-3.415   c-0.386-2.198-1.145-4.213-2.257-6.053c-0.785-1.297-1.813-2.535-3.016-3.576c-1.032-0.893-2.159-1.611-3.375-2.154   c-0.573-0.256-1.167-0.494-1.78-0.66c-0.498-0.134-1.006-0.265-1.526-0.363c-0.175-0.032-0.359-0.063-0.538-0.09   c-0.104-0.013-0.198-0.022-0.297-0.036c-0.04-0.004-0.076-0.009-0.116-0.018h-0.022c-0.022-0.004-0.027-0.004-0.019-0.004   s0.019,0.004,0.027,0.004c-0.525-0.049-1.055-0.085-1.603-0.099c-0.879-0.018-1.745,0.072-2.553,0.216   c-1.683,0.3-3.24,0.848-4.676,1.638c-0.673,0.372-1.314,0.78-1.943,1.238c-0.309,0.225-0.601,0.462-0.896,0.709   c-0.104,0.085-0.202,0.175-0.301,0.265c-0.041,0.031-0.076,0.067-0.113,0.099c-0.004,0.004-0.012,0.009-0.018,0.013   c-0.031,0.031-0.004,0.009,0.006,0c-0.319,0.292-0.634,0.597-0.935,0.911c-1.444,1.512-2.562,3.208-3.41,5.021   C43.227,38.896,42.811,40,42.5,41.144c-0.238,0.87-0.432,1.763-0.57,2.688c-0.066,0.444-0.121,0.893-0.16,1.346   c-0.015,0.152-0.027,0.309-0.037,0.471c-0.004,0.058-0.008,0.117-0.014,0.175v0.022c-0.004,0.054-0.004,0.023,0,0.009   c-0.193,3.02,0.211,5.933,0.979,8.544c1.086,3.689,2.904,7.005,5.33,10.021c1.146,1.418,2.474,2.805,3.878,4.007   c0-0.004-0.004-0.004-0.004-0.009c5.271,4.577,11.522,7.261,18.501,8.418c0.564,0.094,1.135,0.171,1.709,0.243   c2.679,0.327,5.636,0.417,8.418,0.21c0,0.005-0.01,0.005-0.01,0.005c2.806-0.193,5.488-0.597,8.092-1.212   c5.546-1.31,10.644-3.473,15.439-6.291c2.37-1.391,4.654-2.97,6.853-4.702c2.104-1.661,4.142-3.456,6.099-5.412   c1.543-1.544,2.997-3.128,4.37-4.752c2.019-2.383,3.837-4.864,5.533-7.408c0.256-0.386,0.78-0.489,1.167-0.234   C128.458,47.538,128.561,48.063,128.305,48.449"
   id="path8" />
	<g
   opacity="0.47"
   clip-path="url(#SVGID_2_)"
   id="g28">
		<g
   id="g26">
			<defs
   id="defs11">
				<rect
   id="SVGID_3_"
   x="94.067"
   y="16.383"
   width="63.314"
   height="65.473" />
			</defs>
			<clipPath
   id="SVGID_4_">
				<use
   xlink:href="#SVGID_3_"
   overflow="visible"
   id="use13" />
			</clipPath>
			<g
   clip-path="url(#SVGID_4_)"
   id="g24">
				<defs
   id="defs17">
					<rect
   id="SVGID_5_"
   x="94.067"
   y="16.383"
   width="63.314"
   height="65.473" />
				</defs>
				<clipPath
   id="SVGID_6_">
					<use
   xlink:href="#SVGID_5_"
   overflow="visible"
   id="use19" />
				</clipPath>
				<polygon
   clip-path="url(#SVGID_6_)"
   fill-rule="evenodd"
   clip-rule="evenodd"
   fill="#FFFFFF"
   points="102.912,16.383       94.067,69.382 154.08,81.856 157.383,28.983     "
   id="polygon22" />
			</g>
		</g>
	</g>
	
		<line
   clip-path="url(#SVGID_2_)"
   fill="none"
   stroke="#1C9B00"
   stroke-width="1.346"
   stroke-linecap="round"
   stroke-linejoin="round"
   x1="127.605"
   y1="47.982"
   x2="130.468"
   y2="22.755"
   id="line30" />
	
		<line
   clip-path="url(#SVGID_2_)"
   fill="none"
   stroke="#CB0000"
   stroke-width="1.346"
   stroke-linecap="round"
   stroke-linejoin="round"
   x1="127.605"
   y1="47.982"
   x2="155.807"
   y2="54.188"
   id="line32" />
	<path
   clip-path="url(#SVGID_2_)"
   fill-rule="evenodd"
   clip-rule="evenodd"
   d="M127.484,48.646   c-0.091-0.018-0.172-0.049-0.252-0.103c-0.31-0.202-0.395-0.619-0.192-0.929l24.128-36.742l-1.127-0.74l4.277-2.831l-0.898,5.048   l-1.126-0.741l-24.128,36.742C128.014,48.583,127.74,48.691,127.484,48.646"
   id="path34" />
	
		<polygon
   clip-path="url(#SVGID_2_)"
   fill="none"
   stroke="#000000"
   stroke-width="1.346"
   stroke-linecap="round"
   stroke-linejoin="round"
   points="   102.912,16.383 94.067,69.382 154.08,81.856 157.383,28.983  "
   id="polygon36" />
	<path
   clip-path="url(#SVGID_2_)"
   fill-rule="evenodd"
   clip-rule="evenodd"
   fill="#FFFFFF"
   d="M126.537,47.843   c0-0.606,0.489-1.095,1.095-1.095c0.602,0,1.09,0.489,1.09,1.095c0,0.601-0.488,1.09-1.09,1.09   C127.026,48.933,126.537,48.444,126.537,47.843"
   id="path38" />
	<path
   clip-path="url(#SVGID_2_)"
   fill="none"
   stroke="#000000"
   stroke-width="0.673"
   stroke-linejoin="bevel"
   d="M126.537,47.843   c0-0.606,0.489-1.095,1.095-1.095c0.602,0,1.09,0.489,1.09,1.095c0,0.601-0.488,1.09-1.09,1.09   C127.026,48.933,126.537,48.444,126.537,47.843z"
   id="path40" />
	
		<line
   clip-path="url(#SVGID_2_)"
   fill="none"
   stroke="#FFFFFF"
   stroke-width="0.673"
   stroke-linecap="round"
   stroke-linejoin="round"
   x1="44.636"
   y1="32.457"
   x2="43.32"
   y2="34.233"
   id="line42" />
	
		<line
   clip-path="url(#SVGID_2_)"
   fill="none"
   stroke="#FFFFFF"
   stroke-width="0.673"
   stroke-linecap="round"
   stroke-linejoin="round"
   x1="45.92"
   y1="34.781"
   x2="47.117"
   y2="33.309"
   id="line44" />
	
		<line
   clip-path="url(#SVGID_2_)"
   fill="none"
   stroke="#FFFFFF"
   stroke-width="0.673"
   stroke-linecap="round"
   stroke-linejoin="round"
   x1="44.447"
   y1="58.097"
   x2="45.026"
   y2="59.294"
   id="line46" />
	
		<line
   clip-path="url(#SVGID_2_)"
   fill="none"
   stroke="#FFFFFF"
   stroke-width="0.673"
   stroke-linecap="round"
   stroke-linejoin="round"
   x1="42.217"
   y1="59.043"
   x2="42.764"
   y2="60.21"
   id="line48" />
	
		<path
   clip-path="url(#SVGID_2_)"
   fill="none"
   stroke="#FFFFFF"
   stroke-width="0.673"
   stroke-linecap="round"
   stroke-linejoin="round"
   d="   M43.379,61.363c0.66,1.162,1.854,2.948,2.733,4.056"
   id="path50" />
	
		<path
   clip-path="url(#SVGID_2_)"
   fill="none"
   stroke="#FFFFFF"
   stroke-width="0.673"
   stroke-linecap="round"
   stroke-linejoin="round"
   d="   M46.956,62.476c1.005,1.405,2.194,2.805,3.531,4.209"
   id="path52" />
	
		<path
   clip-path="url(#SVGID_2_)"
   fill="none"
   stroke="#FFFFFF"
   stroke-width="0.673"
   stroke-linecap="round"
   stroke-linejoin="round"
   d="   M41.877,60.686c-0.664-0.444-1.262-0.888-1.817-1.333"
   id="path54" />
	
		<path
   clip-path="url(#SVGID_2_)"
   fill="none"
   stroke="#FFFFFF"
   stroke-width="0.673"
   stroke-linecap="round"
   stroke-linejoin="round"
   d="   M36.977,59.474c0.699,0.678,1.346,1.301,2.006,1.871"
   id="path56" />
	
		<path
   clip-path="url(#SVGID_2_)"
   fill="none"
   stroke="#FFFFFF"
   stroke-width="0.673"
   stroke-linecap="round"
   stroke-linejoin="round"
   d="   M33.023,53.237c0.201,0.529,0.467,1.104,0.74,1.633"
   id="path58" />
	
		<path
   clip-path="url(#SVGID_2_)"
   fill="none"
   stroke="#FFFFFF"
   stroke-width="0.673"
   stroke-linecap="round"
   stroke-linejoin="round"
   d="   M34.76,51.541c0.18,0.521,0.377,1.037,0.592,1.557"
   id="path60" />
	
		<path
   clip-path="url(#SVGID_2_)"
   fill="none"
   stroke="#FFFFFF"
   stroke-width="0.673"
   stroke-linecap="round"
   stroke-linejoin="round"
   d="   M28.303,56.603c0.39,0.296,0.799,0.579,1.234,0.835"
   id="path62" />
	
		<path
   clip-path="url(#SVGID_2_)"
   fill="none"
   stroke="#FFFFFF"
   stroke-width="0.673"
   stroke-linecap="round"
   stroke-linejoin="round"
   d="   M26.014,57.064c0.485,0.471,1.041,0.902,1.639,1.306"
   id="path64" />
	
		<path
   clip-path="url(#SVGID_2_)"
   fill="none"
   stroke="#FFFFFF"
   stroke-width="0.673"
   stroke-linecap="round"
   stroke-linejoin="round"
   d="   M16.748,55.207c0.314,0.215,0.678,0.422,1.014,0.606"
   id="path66" />
	
		<path
   clip-path="url(#SVGID_2_)"
   fill="none"
   stroke="#FFFFFF"
   stroke-width="0.673"
   stroke-linecap="round"
   stroke-linejoin="round"
   d="   M15.133,55.857c0.377,0.292,0.771,0.565,1.188,0.826"
   id="path68" />
	
		<path
   clip-path="url(#SVGID_2_)"
   fill="none"
   stroke="#FFFFFF"
   stroke-width="0.673"
   stroke-linecap="round"
   stroke-linejoin="round"
   d="   M34.576,37.383c-0.418,0.597-0.826,1.247-1.186,1.97"
   id="path70" />
	
		<path
   clip-path="url(#SVGID_2_)"
   fill="none"
   stroke="#FFFFFF"
   stroke-width="0.673"
   stroke-linecap="round"
   stroke-linejoin="round"
   d="   M36.057,39.026c-0.359,0.489-0.678,1.104-0.934,1.674"
   id="path72" />
	
		<path
   clip-path="url(#SVGID_2_)"
   fill="none"
   stroke="#FFFFFF"
   stroke-width="0.673"
   stroke-linecap="round"
   stroke-linejoin="round"
   d="   M23.008,48.251c0.099,0.678,0.283,1.355,0.543,2.033"
   id="path74" />
	
		<path
   clip-path="url(#SVGID_2_)"
   fill="none"
   stroke="#FFFFFF"
   stroke-width="0.673"
   stroke-linecap="round"
   stroke-linejoin="round"
   d="   M22.389,52.128c-0.188-0.435-0.368-0.866-0.521-1.301"
   id="path76" />
	
		<path
   clip-path="url(#SVGID_2_)"
   fill="none"
   stroke="#FFFFFF"
   stroke-width="0.673"
   stroke-linecap="round"
   stroke-linejoin="round"
   d="   M22.64,40.448c-0.22,0.372-0.417,0.758-0.588,1.153"
   id="path78" />
	
		<path
   clip-path="url(#SVGID_2_)"
   fill="none"
   stroke="#FFFFFF"
   stroke-width="0.673"
   stroke-linecap="round"
   stroke-linejoin="round"
   d="   M23.707,42.046c-0.328,0.731-0.537,1.44-0.69,2.131"
   id="path80" />
	
	
	
	
	
	
	
	
	
	
	
	
	
<text
   xml:space="preserve"
   style="font-style:normal;font-weight:normal;font-size:5.33333px;line-height:1.25;font-family:sans-serif;fill:#000000;fill-opacity:1;stroke:none;image-rendering:auto"
   x="104.63154"
   y="-13.061423"
   id="text1565"
   transform="rotate(15)"><tspan
     sodipodi:role="line"
     id="tspan1563"
     x="104.63154"
     y="-13.061423"
     style="font-size:5.33333px">法平面</tspan></text><text
   xml:space="preserve"
   style="font-size:5.33333px;line-height:1.25;font-family:sans-serif"
   x="49.510811"
   y="132.66673"
   id="text18683"
   transform="rotate(-60.336612)"><tspan
     sodipodi:role="line"
     id="tspan18681"
     x="49.510811"
     y="132.66673">切向量</tspan></text><text
   xml:space="preserve"
   style="font-size:5.33333px;line-height:1.25;font-family:sans-serif"
   x="170.86966"
   y="-37.398373"
   id="text23027"
   transform="rotate(51.168375)"><tspan
     sodipodi:role="line"
     id="tspan23025"
     x="170.86966"
     y="-37.398373">切平面</tspan></text><text
   xml:space="preserve"
   style="font-size:5.33333px;line-height:1.25;font-family:sans-serif"
   x="-12.270595"
   y="162.43536"
   id="text23283"
   transform="rotate(-55.850401)"><tspan
     sodipodi:role="line"
     id="tspan23281"
     x="-12.270595"
     y="162.43536">法向量</tspan></text></g>
<g
   id="g123">
	<defs
   id="defs111">
		<path
   id="SVGID_7_"
   d="M0.898,136.231c3.18-3.323,7.461-2.565,11.072-0.967c3.588,1.58,6.944,4.134,9.854,6.666    c5.8,5.047,11.384,11.553,16.013,17.637c9.418,12.39,17.84,26.843,24.658,40.772c10.741-15.848,24.781-30.652,40.705-41.492    c7.803-5.313,16.93-10.229,26.07-12.956c8.844-2.638,19.682-3.778,28.336,1.577c-6.857-13.79-15.896-26.671-27.386-36.825    c-5.82-5.149-12.275-9.595-19.386-12.876c-8.501-3.919-17.937-6.176-27.276-6.713c-1.471-0.085-2.94-0.126-4.405-0.126    C47.819,90.928,18.082,109.91,0.898,136.231" />
	</defs>
	<clipPath
   id="SVGID_8_">
		<use
   xlink:href="#SVGID_7_"
   overflow="visible"
   id="use113" />
	</clipPath>
	
		<radialGradient
   id="SVGID_9_"
   cx="-320.6987"
   cy="397.439"
   r="1"
   gradientTransform="matrix(109.2844 0 0 -109.2844 35096.9453 43541.5508)"
   gradientUnits="userSpaceOnUse">
		<stop
   offset="0"
   style="stop-color:#FFCB0F"
   id="stop116" />
		<stop
   offset="1"
   style="stop-color:#DD3B00"
   id="stop118" />
	</radialGradient>
	<rect
   x="0.898"
   y="90.928"
   clip-path="url(#SVGID_8_)"
   fill="url(#SVGID_9_)"
   width="156.707"
   height="109.411"
   id="rect121" />
</g>
<g
   id="g157">
	<defs
   id="defs126">
		<rect
   id="SVGID_10_"
   y="82.764"
   width="158.504"
   height="118.474" />
	</defs>
	<clipPath
   id="SVGID_11_">
		<use
   xlink:href="#SVGID_10_"
   overflow="visible"
   id="use128" />
	</clipPath>
	
		<path
   clip-path="url(#SVGID_11_)"
   fill="none"
   stroke="#000000"
   stroke-width="0.951"
   stroke-linecap="round"
   stroke-linejoin="round"
   d="   M157.605,147.468c-6.856-13.79-15.895-26.67-27.385-36.824c-5.821-5.148-12.276-9.596-19.386-12.877   c-8.501-3.918-17.938-6.176-27.275-6.713c-32.931-1.885-64.674,17.624-82.661,45.178c3.18-3.322,7.461-2.566,11.071-0.968   c3.589,1.581,6.946,4.134,9.854,6.666c5.8,5.048,11.384,11.553,16.013,17.637c9.419,12.39,17.84,26.843,24.658,40.772   c10.741-15.849,24.78-30.652,40.705-41.491c7.804-5.313,16.931-10.229,26.069-12.957   C138.113,143.253,148.952,142.112,157.605,147.468z"
   id="path131" />
	
		<path
   clip-path="url(#SVGID_11_)"
   fill="none"
   stroke="#000000"
   stroke-width="0.634"
   stroke-linecap="round"
   stroke-linejoin="round"
   stroke-dasharray="1.264,1.264"
   d="   M140.046,120.59c-8.29-5.36-19.13-4.802-27.9-2.798c-9.216,2.105-18.423,6.273-26.485,11.033   c-16.254,9.587-31.134,23.411-42.035,38.786"
   id="path133" />
	
		<path
   clip-path="url(#SVGID_11_)"
   fill="none"
   stroke="#000000"
   stroke-width="0.634"
   stroke-linecap="round"
   stroke-linejoin="round"
   stroke-dasharray="1.264,1.264"
   d="   M120.27,103.115c-8.099-5.111-18.244-5.47-27.121-4.054c-9.128,1.454-18.221,4.95-26.3,9.254   c-16.203,8.623-31.02,21.834-41.36,37.018"
   id="path135" />
	
		<path
   clip-path="url(#SVGID_11_)"
   fill="none"
   stroke="#000000"
   stroke-width="0.634"
   stroke-linecap="round"
   stroke-linejoin="round"
   stroke-dasharray="1.264,1.264"
   d="   M87.259,91.274c-15.125-1.678-31.32,4.329-43.673,11.815c-13.016,7.889-24.518,18.922-32.867,31.667"
   id="path137" />
	
		<path
   clip-path="url(#SVGID_11_)"
   fill="none"
   stroke="#000000"
   stroke-width="0.634"
   stroke-linecap="round"
   stroke-linejoin="round"
   stroke-dasharray="1.264,1.264"
   d="   M49.906,96.389c7.147-2.697,15.789,1.112,21.428,4.464c6.354,3.775,12.378,8.979,17.493,14.229   c10.331,10.603,19.264,23.674,25.926,36.82"
   id="path139" />
	
		<path
   clip-path="url(#SVGID_11_)"
   fill="none"
   stroke="#000000"
   stroke-width="0.634"
   stroke-linecap="round"
   stroke-linejoin="round"
   stroke-dasharray="1.264,1.264"
   d="   M81.07,90.86c13.1,0.389,26.687,11.282,34.812,19.603c9.41,9.633,17.315,21.373,23.184,33.426"
   id="path141" />
	
		<path
   clip-path="url(#SVGID_11_)"
   fill="none"
   stroke="#000000"
   stroke-width="0.634"
   stroke-linecap="round"
   stroke-linejoin="round"
   stroke-dasharray="1.264,1.264"
   d="   M22.605,112.191c3.324-2.706,7.537-2.309,11.178-1.15c3.83,1.219,7.105,3.176,10.353,5.449   c6.223,4.363,12.226,10.243,17.235,15.878c10.183,11.456,19.268,25.208,26.373,38.728"
   id="path143" />
	<g
   opacity="0.67"
   clip-path="url(#SVGID_11_)"
   id="g155">
		<g
   id="g153">
			<defs
   id="defs146">
				<rect
   id="SVGID_12_"
   x="91.452"
   y="98.799"
   width="58.595"
   height="38.088" />
			</defs>
			<clipPath
   id="SVGID_13_">
				<use
   xlink:href="#SVGID_12_"
   overflow="visible"
   id="use148" />
			</clipPath>
			<polygon
   clip-path="url(#SVGID_13_)"
   fill-rule="evenodd"
   clip-rule="evenodd"
   fill="#FFFFFF"
   points="91.452,100.908      118.947,136.887 150.047,131.396 123.344,98.799    "
   id="polygon151" />
		</g>
	</g>
</g>
<line
   fill="none"
   stroke="#CB0000"
   stroke-width="0.951"
   stroke-linecap="round"
   stroke-linejoin="round"
   x1="121.306"
   y1="116.444"
   x2="136.347"
   y2="114.673"
   id="line159" />
<line
   fill="none"
   stroke="#1C9B00"
   stroke-width="0.951"
   stroke-linecap="round"
   stroke-linejoin="round"
   x1="121.306"
   y1="116.444"
   x2="109.98"
   y2="99.683"
   id="line161" />
<polygon
   fill="none"
   stroke="#000000"
   stroke-width="0.951"
   stroke-linecap="round"
   stroke-linejoin="round"
   points="  91.452,100.908 118.947,136.887 150.047,131.396 123.344,98.799 "
   id="polygon163" />
<g
   id="g223">
	<defs
   id="defs166">
		<rect
   id="SVGID_14_"
   y="82.764"
   width="158.504"
   height="118.474" />
	</defs>
	<clipPath
   id="SVGID_15_">
		<use
   xlink:href="#SVGID_14_"
   overflow="visible"
   id="use168" />
	</clipPath>
	<g
   opacity="0.5"
   clip-path="url(#SVGID_15_)"
   id="g189">
		<g
   id="g187">
			<defs
   id="defs172">
				<rect
   id="SVGID_16_"
   x="35.141"
   y="103.205"
   width="28.507"
   height="23.283" />
			</defs>
			<clipPath
   id="SVGID_17_">
				<use
   xlink:href="#SVGID_16_"
   overflow="visible"
   id="use174" />
			</clipPath>
			<g
   clip-path="url(#SVGID_17_)"
   id="g185">
				<defs
   id="defs178">
					<rect
   id="SVGID_18_"
   x="35.141"
   y="103.205"
   width="28.506"
   height="23.283" />
				</defs>
				<clipPath
   id="SVGID_19_">
					<use
   xlink:href="#SVGID_18_"
   overflow="visible"
   id="use180" />
				</clipPath>
				<path
   clip-path="url(#SVGID_19_)"
   fill-rule="evenodd"
   clip-rule="evenodd"
   fill="#FFFFFF"
   d="M44.398,105.905      c7.363-4.116,15.581-3.45,18.342,1.488c2.757,4.938-0.985,12.284-8.354,16.397c-7.363,4.113-15.582,3.445-18.338-1.488      C33.289,117.365,37.029,110.018,44.398,105.905"
   id="path183" />
			</g>
		</g>
	</g>
	<path
   clip-path="url(#SVGID_15_)"
   fill-rule="evenodd"
   clip-rule="evenodd"
   d="M121.382,116.913   c-0.119,0.017-0.249-0.008-0.355-0.085c-0.211-0.156-0.258-0.452-0.105-0.663l16.698-23.107l-0.771-0.558l3.104-1.864l-0.79,3.534   l-0.773-0.558l-16.698,23.106C121.615,116.828,121.5,116.892,121.382,116.913"
   id="path191" />
	<path
   clip-path="url(#SVGID_15_)"
   fill-rule="evenodd"
   clip-rule="evenodd"
   fill="#FFFFFF"
   d="M120.325,116.453   c0-0.566,0.46-1.031,1.03-1.031c0.567,0,1.032,0.465,1.032,1.031c0,0.57-0.465,1.03-1.032,1.03   C120.785,117.483,120.325,117.023,120.325,116.453"
   id="path193" />
	<path
   clip-path="url(#SVGID_15_)"
   fill="none"
   stroke="#000000"
   stroke-width="0.634"
   stroke-linejoin="bevel"
   d="M120.325,116.453   c0-0.566,0.46-1.031,1.03-1.031c0.567,0,1.032,0.465,1.032,1.031c0,0.57-0.465,1.03-1.032,1.03   C120.785,117.483,120.325,117.023,120.325,116.453z"
   id="path195" />
	
	
	
	
	
	
	
	
	
	
	
	
	
</g>
</svg>
